HIERARCHY
ROOT RootJoint
{
    OFFSET   0.000000   0.000000   0.000000
    CHANNELS 6 Xposition Yposition Zposition Xrotation Yrotation Zrotation
    JOINT pelvis_lowerback
    {
        OFFSET   0.000000   0.093605   0.000000
        CHANNELS 3 Xrotation Yrotation Zrotation
        JOINT lowerback_torso
        {
            OFFSET   0.000000   0.100000   0.000000
            CHANNELS 3 Xrotation Yrotation Zrotation
            JOINT torso_head
            {
                OFFSET   0.000000   0.282350   0.000000
                CHANNELS 3 Xrotation Yrotation Zrotation
                End Site
                {
                    OFFSET   0.000000   0.192650   0.000000
                }
            }
            JOINT rTorso_Clavicle
            {
                OFFSET  -0.001000   0.157500   0.000000
                CHANNELS 3 Xrotation Yrotation Zrotation
                JOINT rShoulder
                {
                    OFFSET  -0.117647   0.000000   0.000000
                    CHANNELS 3 Xrotation Yrotation Zrotation
                    JOINT rElbow
                    {
                        OFFSET  -0.245000   0.000000   0.000000
                        CHANNELS 3 Xrotation Yrotation Zrotation
                        JOINT rWrist
                        {
                            OFFSET  -0.240000   0.000000   0.000000
                            CHANNELS 3 Xrotation Yrotation Zrotation
                            End Site
                            {
                                OFFSET  -0.116353  -0.002500   0.000000
                            }
                        }
                    }
                }
            }
            JOINT lTorso_Clavicle
            {
                OFFSET   0.001000   0.157500   0.000000
                CHANNELS 3 Xrotation Yrotation Zrotation
                JOINT lShoulder
                {
                    OFFSET   0.117647   0.000000   0.000000
                    CHANNELS 3 Xrotation Yrotation Zrotation
                    JOINT lElbow
                    {
                        OFFSET   0.245000   0.000000   0.000000
                        CHANNELS 3 Xrotation Yrotation Zrotation
                        JOINT lWrist
                        {
                            OFFSET   0.240000   0.000000   0.000000
                            CHANNELS 3 Xrotation Yrotation Zrotation
                            End Site
                            {
                                OFFSET   0.116353  -0.002500   0.000000
                            }
                        }
                    }
                }
            }
        }
    }
    JOINT rHip
    {
        OFFSET  -0.100000  -0.051395   0.000000
        CHANNELS 3 Xrotation Yrotation Zrotation
        JOINT rKnee
        {
            OFFSET   0.000000  -0.410000   0.000000
            CHANNELS 3 Xrotation Yrotation Zrotation
            JOINT rAnkle
            {
                OFFSET   0.000000  -0.390000   0.000000
                CHANNELS 3 Xrotation Yrotation Zrotation
                JOINT rToeJoint
                {
                    OFFSET   0.000000  -0.050000   0.130000
                    CHANNELS 3 Xrotation Yrotation Zrotation
                    End Site
                    {
                        OFFSET  -0.010000   0.002000   0.060000
                    }
                }
            }
        }
    }
    JOINT lHip
    {
        OFFSET   0.100000  -0.051395   0.000000
        CHANNELS 3 Xrotation Yrotation Zrotation
        JOINT lKnee
        {
            OFFSET   0.000000  -0.410000   0.000000
            CHANNELS 3 Xrotation Yrotation Zrotation
            JOINT lAnkle
            {
                OFFSET   0.000000  -0.390000   0.000000
                CHANNELS 3 Xrotation Yrotation Zrotation
                JOINT lToeJoint
                {
                    OFFSET   0.000000  -0.050000   0.130000
                    CHANNELS 3 Xrotation Yrotation Zrotation
                    End Site
                    {
                        OFFSET   0.010000   0.002000   0.060000
                    }
                }
            }
        }
    }
}
MOTION
Frames: 12
Frame Time:   0.008333
 -2.585217   0.853776   3.947461 -19.678766 -85.169526 -18.745712  17.695817  -9.445022   3.884255   8.864528  -2.797627  11.818666   3.527096   6.377419  -3.744574  -0.489807  15.906975   4.077769  -6.732473  38.738313  54.770857 179.981691  67.756466 -179.981810   3.195936   3.295432   1.860119  -4.997836 -16.319755  16.356308 -17.128589  -3.495703 -23.424108   0.229966 -72.119347   0.182947   1.930073  -4.890566   8.464875 -29.620875  12.172757  -3.629507  38.483314   0.002585   0.000969  -9.221373  15.698710   8.538492  -0.699358  -0.000053  -0.001398  13.557068   4.255532   8.735624  25.595525  -0.000021  -0.000333 -18.240018  10.923906  -1.368840 -25.443128  -0.006400  -0.003580
 -2.584982   0.854971   3.947033 -14.832374 -84.183476 -13.662887  17.409424  -9.287039   3.969040   9.034996  -2.859274  11.842492   3.287853   6.402083  -3.653700  -0.458958  15.705642   3.758081  -6.548015  39.021558  54.474033 179.978336  67.516660 -179.978008   3.158456   3.101185   1.845536  -4.720154 -16.455497  15.351463 -15.624269  -4.132306 -24.710047   0.302895 -73.509950   0.239002   1.927171  -5.082835   8.780401 -29.368268  12.066038  -4.145736  38.347122   0.001822  -0.000108  -9.365479  14.915460   8.388175  -0.662982   0.000037  -0.001118  13.072903   4.002360   8.869142  25.535110  -0.000165  -0.000715 -17.505434  10.352118  -1.468605 -26.984562  -0.003250  -0.007181
 -2.584794   0.856822   3.946314 -11.311563 -83.058096  -9.833276  17.068132  -9.080273   3.975781   9.169819  -2.916898  11.763599   3.036854   6.430453  -3.531977  -0.497921  15.518197   3.388799  -6.418701  39.284640  54.163071 179.974119  67.272341 -179.973848   3.121653   2.955280   1.791157  -4.333883 -16.612840  14.215731 -14.126451  -4.785294 -26.077141   0.366625 -74.831886   0.285509   1.942381  -5.423921   8.637281 -28.965099  11.923243  -4.760068  38.023012   0.000911  -0.002358  -9.435389  14.075387   8.165274  -0.609099   0.000172  -0.000894  12.548796   3.728751   8.959958  25.458588  -0.000342  -0.001209 -16.732731   9.758132  -1.569928 -27.474923  -0.001859  -0.007461
 -2.584682   0.858985   3.945216  -8.830099 -81.854000  -7.007566  16.703727  -8.841784   3.891456   9.274706  -2.950491  11.583722   2.790290   6.459583  -3.408157  -0.576273  15.350579   3.016423  -6.331336  39.536582  53.865355 179.969780  67.029588 -179.969824   3.086720   2.884604   1.705188  -3.913579 -16.752060  13.044755 -12.681322  -5.411483 -27.421178   0.410008 -76.050410   0.314717   1.944673  -5.707937   8.212203 -28.487217  11.740702  -5.406613  37.614539   0.000143  -0.004853  -9.459446  13.212677   7.910455  -0.551241   0.000290  -0.000716  12.014431   3.460471   9.032026  25.364881  -0.000543  -0.001807 -15.958636   9.185015  -1.660717 -27.286772  -0.001827  -0.005177
 -2.584675   0.861265   3.943737  -7.059024 -80.595507  -4.885404  16.329511  -8.571516   3.724707   9.351974  -2.950952  11.321648   2.555604   6.487125  -3.292297  -0.674086  15.197718   2.652213  -6.268879  39.775150  53.583119 179.965748  66.793275 -179.966223   3.053474   2.868843   1.598714  -3.492838 -16.854988  11.889068 -11.306925  -5.998993 -28.700905   0.432097 -77.170863   0.326497   1.929701  -5.897682   7.668795 -27.975723  11.510897  -6.047729  37.176298  -0.000395  -0.007136  -9.457285  12.338654   7.648191  -0.496448   0.000365  -0.000573  11.479019   3.201061   9.109853  25.257845  -0.000746  -0.002454 -15.201940   8.646017  -1.738299 -26.677812  -0.002743  -0.001158
 -2.584790   0.863552   3.941882  -5.758899 -79.255138  -3.245919  15.952374  -8.282889   3.493763   9.403309  -2.924037  11.001850   2.335291   6.512169  -3.187205  -0.779877  15.053946   2.299572  -6.219602  39.997484  53.314359 179.962235  66.566691 -179.963167   3.022081   2.884548   1.476830  -3.087510 -16.920155  10.776871 -10.011340  -6.546995 -29.899082   0.434838 -78.203222   0.322666   1.902372  -6.009397   7.097445 -27.436196  11.277103  -6.669964  36.724308  -0.000879  -0.009414  -9.464766  11.507939   7.393297  -0.440644   0.000424  -0.000395  10.932486   2.949272   9.230245  25.137704  -0.000949  -0.003184 -14.471886   8.155348  -1.799402 -25.792509  -0.004454   0.004311
 -2.585034   0.865778   3.939664  -4.787282 -77.786179  -1.956945  15.575937  -7.991733   3.218085   9.430190  -2.881033  10.646697   2.129653   6.534443  -3.093220  -0.887263  14.915009   1.959359  -6.176422  40.201889  53.056956 179.959300  66.351493 -179.960651   2.992640   2.915082   1.341246  -2.705318 -16.954131   9.724046  -8.797859  -7.059311 -31.009899   0.420955 -79.157423   0.305447   1.868238  -6.068398   6.543180 -26.857977  11.086544  -7.274834  36.263088  -0.001504  -0.012014  -9.516210  10.770330   7.158912  -0.378589   0.000496  -0.000095  10.359063   2.697876   9.418350  24.999212  -0.001183  -0.004106 -13.775230   7.711716  -1.845379 -24.743738  -0.006748   0.011115
 -2.585734   0.868677   3.937683  -4.236099 -76.160124  -1.181280  15.099581  -7.538469   3.066409   9.466530  -2.915718  10.368831   2.028412   6.397852  -2.966990  -0.912118  14.713059   1.429926  -5.997339  40.077858  52.416254 179.950983  66.029737 -179.954154   2.897859   2.870297   1.402325  -2.373359 -16.918404   8.608317  -7.249909  -7.870254 -32.445954   0.404184 -79.929914   0.288703   1.808712  -6.147571   6.355287 -26.019067  10.715807  -7.808781  35.556019  -0.002116  -0.017000  -9.478726   9.623113   6.789125  -0.298052   0.000650  -0.000026   9.695053   2.459874   9.705513  25.034667  -0.000817  -0.002840 -12.538922   7.125258  -1.985421 -25.146492  -0.004459   0.005670
 -2.586760   0.871789   3.935725  -3.913462 -74.395373  -0.620771  14.566319  -7.103915   2.894084   9.474509  -2.961223  10.066279   1.928790   6.268636  -2.825985  -0.953348  14.456220   0.854216  -5.801731  39.909598  51.744088 179.944490  65.720720 -179.949540   2.811653   2.818737   1.399634  -1.975507 -16.838152   7.475252  -5.738469  -8.643784 -33.850036   0.376525 -80.632541   0.262450   1.738997  -6.134255   5.915897 -25.018733  10.452673  -8.373819  34.716523  -0.003487  -0.024125  -9.489391   8.624548   6.388344  -0.189615   0.000967   0.000430   9.002782   2.220727   9.982620  25.113394  -0.000314  -0.001195 -11.328869   6.570106  -2.101111 -24.954625  -0.004091   0.006350
 -2.588058   0.874911   3.933719  -3.750779 -72.537590  -0.213949  14.000123  -6.673941   2.681447   9.442290  -2.989032   9.728561   1.830134   6.148298  -2.690133  -1.005268  14.186208   0.281926  -5.615728  39.731304  51.092177 179.939642  65.426935 -179.946357   2.731608   2.769719   1.340950  -1.562852 -16.715012   6.380683  -4.299786  -9.367357 -35.170639   0.337222 -81.273568   0.226144   1.663760  -6.039379   5.374640 -23.955576  10.194319  -8.943090  33.874867  -0.004741  -0.030664  -9.501383   7.678037   5.995805  -0.137012   0.000992   0.000636   8.314427   1.990902  10.252630  25.188172   0.000101   0.000128 -10.166899   6.051545  -2.194979 -24.382667  -0.004834   0.011222
 -2.589590   0.877966   3.931668  -3.704837 -70.587997   0.067299  13.416137  -6.244791   2.438733   9.371287  -2.991743   9.367998   1.735199   6.035798  -2.566584  -1.065296  13.920411  -0.270820  -5.444439  39.553829  50.471929 179.936278  65.149810 -179.944350   2.656264   2.724951   1.249977  -1.158098 -16.559370   5.350715  -2.947497 -10.044193 -36.393342   0.288693 -81.863645   0.181885   1.588093  -5.899839   4.829204 -22.866740   9.933960  -9.494162  33.084661  -0.005758  -0.035932  -9.490315   6.787408   5.610708  -0.206804   0.000506   0.000026   7.634997   1.767157  10.530879  25.248469   0.000386   0.001024  -9.060339   5.571149  -2.269376 -23.570693  -0.005964   0.018708
 -2.591334   0.880914   3.929612  -3.741036 -68.541582   0.251595  12.820672  -5.817409   2.175082   9.264738  -2.970039   8.996628   1.645542   5.930666  -2.456720  -1.131355  13.666398  -0.798107  -5.288800  39.382212  49.886713 179.934230  64.889632 -179.943338   2.584867   2.683032   1.143383  -0.771312 -16.381271   4.395837  -1.684993 -10.678795 -37.516877   0.233475 -82.411148   0.131826   1.515261  -5.746499   4.320539 -21.761236   9.670308 -10.020328  32.361744  -0.006566  -0.039865  -9.461151   5.953146   5.238166  -0.405897  -0.000404  -0.001642   6.963484   1.548097  10.821770  25.289841   0.000534   0.001485  -8.011702   5.129014  -2.326551 -22.606292  -0.006983   0.027756
